<svg xmlns="http://www.w3.org/2000/svg" xmlns:xlink="http://www.w3.org/1999/xlink" version="1.1" x="0px" y="0px" viewBox="0 0 100 125">
<g >
<path d="M70.6,75.1l-10.6-33c3.6-2.9,5.9-7.3,5.9-12.3C65.9,21.1,58.8,14,50,14c-8.7,0-15.9,7.1-15.9,15.8c0,5,2.3,9.4,5.9,12.3   l-10.6,33c0,0.2-0.1,0.3-0.1,0.5c0,3,2.3,5.7,6.5,7.7C39.6,85,44.7,86,50,86c5.3,0,10.4-1,14.2-2.7c4.2-1.9,6.5-4.7,6.5-7.7   C70.6,75.4,70.6,75.2,70.6,75.1z M37.2,29.8c0-7,5.7-12.7,12.8-12.7c7.1,0,12.8,5.7,12.8,12.7c0,7-5.7,12.7-12.8,12.7   C42.9,42.5,37.2,36.8,37.2,29.8z M50,82.9c-10.2,0-17.3-3.7-17.6-7.2l10.3-31.9c2.2,1.1,4.7,1.8,7.3,1.8c2.6,0,5.1-0.6,7.3-1.8   l10.3,31.9C67.3,79.2,60.2,82.9,50,82.9z"
fill="#f00"
stroke="#fff"
/>
</g>
</svg>